<?xml version="1.0" encoding="UTF-8"?>
<svg version="1.1" xmlns="http://www.w3.org/2000/svg" width="325" height="246">
<path d="M0 0 C-1.08911973 7.56651599 -2.63134535 14.92120022 -4.59082031 22.30273438 C-5.69502094 26.51954678 -6.3946379 30.68746471 -7 35 C-7.33 35.66 -7.66 36.32 -8 37 C4.46544816 37.43232768 18.15312687 37.63243572 29.1171875 31.0234375 C31 30 31 30 34 30 C32.54042206 33.88802909 30.74435581 37.4458584 28.734375 41.078125 C28.41849426 41.64899841 28.10261353 42.21987183 27.77716064 42.80804443 C27.1096032 44.01234221 26.44052766 45.21579959 25.77001953 46.41845703 C24.76222079 48.2280564 23.76167945 50.04152918 22.76171875 51.85546875 C21.47164454 54.19055154 20.15389676 56.50128865 18.81689453 58.81079102 C17.69478725 60.78043458 16.62575155 62.78275908 15.64794922 64.82788086 C14.29409468 67.4022442 13.23411405 69.13116589 11 71 C6.5200563 72.20816786 2.24103626 72.17002414 -2.375 72.0625 C-3.58800781 72.06958984 -4.80101562 72.07667969 -6.05078125 72.08398438 C-9.03623683 72.09573814 -12.01542988 72.06645804 -15 72 C-15.64687807 74.72892283 -16.29253718 77.45812447 -16.9375 80.1875 C-17.11990234 80.95642578 -17.30230469 81.72535156 -17.49023438 82.51757812 C-19.44513153 90.48480306 -19.44513153 90.48480306 -20.25 98.625 C-20.27578125 99.38039063 -20.3015625 100.13578125 -20.328125 100.9140625 C-19.91440845 103.54411771 -19.0488531 104.35892834 -17 106 C-14.16730334 107.41634833 -11.52533562 107.3463005 -8.375 107.5625 C-6.59222656 107.68818359 -6.59222656 107.68818359 -4.7734375 107.81640625 C-3.85820312 107.87699219 -2.94296875 107.93757813 -2 108 C-3.47214734 117.14280977 -5.69301589 126.04171105 -8 135 C-8.33426505 136.33310006 -8.6678282 137.66637682 -9 139 C-40.17989636 140.04765741 -40.17989636 140.04765741 -51.1875 131.375 C-56.67544563 125.86665309 -57.99389007 119.99512189 -58.203125 112.421875 C-58.14202695 106.48270455 -56.97854866 100.9032751 -55.6875 95.125 C-55.47416016 94.12597656 -55.26082031 93.12695312 -55.04101562 92.09765625 C-53.93277538 86.96997748 -52.72506935 81.87578794 -51.45002747 76.78707886 C-51.17880475 75.70406935 -50.90758204 74.62105984 -50.62814045 73.50523186 C-50.4208541 72.67850534 -50.21356775 71.85177883 -50 71 C-70.13271766 71.06064168 -90.26530303 71.13821699 -110.39787674 71.23571491 C-119.74668497 71.28059844 -129.09545574 71.32003013 -138.44433594 71.34643555 C-146.59689432 71.36947606 -154.7493334 71.40294128 -162.90179706 71.44870156 C-167.21477422 71.47255244 -171.52763384 71.49133434 -175.84067535 71.49761391 C-179.90861515 71.50370181 -183.97625451 71.52383377 -188.04408264 71.55427551 C-189.5290238 71.5629968 -191.01400433 71.56679072 -192.49897003 71.56500816 C-203.41106759 71.55605307 -217.35775615 71.59497915 -225.75 79.6875 C-226.1625 80.120625 -226.575 80.55375 -227 81 C-227.66 81 -228.32 81 -229 81 C-227.39629809 76.22576098 -224.74312311 72.45590729 -221.875 68.375 C-221.38217529 67.66641846 -220.88935059 66.95783691 -220.3815918 66.2277832 C-216.98711145 61.36300479 -213.57457364 56.50968611 -209.98849487 51.78369617 C-207.95807454 49.05473132 -207.95807454 49.05473132 -206.41629028 46.1310606 C-203.80291436 41.7002681 -201.82315627 38.56105916 -196.76873779 37.00560951 C-192.69779058 36.64340418 -188.75894594 36.636346 -184.6796875 36.7512207 C-183.13173139 36.7543272 -181.5837591 36.75257463 -180.03581238 36.74635315 C-175.85110004 36.74320743 -171.66988332 36.80768804 -167.48598099 36.88466668 C-163.10729138 36.95361699 -158.72851395 36.95990693 -154.34936523 36.97294617 C-146.06506706 37.00708267 -137.78237318 37.09727321 -129.49878025 37.20779055 C-120.0649024 37.33091166 -110.63094631 37.39126436 -101.19646454 37.44644034 C-81.79673478 37.56129785 -62.39849654 37.754671 -43 38 C-42.84072021 37.11231934 -42.68144043 36.22463867 -42.51733398 35.31005859 C-42.28344971 34.14297363 -42.04956543 32.97588867 -41.80859375 31.7734375 C-41.47686157 30.039729 -41.47686157 30.039729 -41.13842773 28.27099609 C-39.07976272 22.35592128 -34.23543133 19.97271639 -29 17 C-28.05511719 16.443125 -27.11023438 15.88625 -26.13671875 15.3125 C-24.19043597 14.17475418 -22.23572999 13.05131184 -20.2734375 11.94140625 C-15.68451789 9.2198155 -11.29016312 6.22852083 -6.89941406 3.19970703 C-2.20849704 0 -2.20849704 0 0 0 Z " fill="#FDFDFD" transform="translate(261,59)"/>
<path d="M0 0 C12.87 0 25.74 0 39 0 C36.78485774 11.07571129 34.51143794 22.07938274 31.88574219 33.05664062 C31.45747972 34.8709999 31.0410347 36.68818444 30.63574219 38.5078125 C30.04038251 41.17411229 29.40736908 43.82891053 28.765625 46.484375 C28.59242737 47.2967865 28.41922974 48.109198 28.24078369 48.94622803 C27.67967954 51.16762468 27.13557437 53.00909638 26 55 C22.58520508 56.95654297 22.58520508 56.95654297 19 58 C18.26579834 58.2376709 17.53159668 58.4753418 16.77514648 58.72021484 C16.14680908 58.88215332 15.51847168 59.0440918 14.87109375 59.2109375 C14.15252197 59.40147705 13.4339502 59.5920166 12.69360352 59.78833008 C11.94908936 59.98193115 11.2045752 60.17553223 10.4375 60.375 C3.37580328 62.26205809 -3.44649522 64.48550988 -10.27734375 67.08203125 C-13 68 -13 68 -16 68 C-13.30602058 55.68114964 -10.46895421 43.40119352 -7.53564453 31.13720703 C-6.86737407 28.34311539 -6.20110411 25.54855229 -5.53515625 22.75390625 C-5.10428019 20.94788958 -4.67329467 19.14189902 -4.2421875 17.3359375 C-4.0463205 16.51499603 -3.85045349 15.69405457 -3.64865112 14.84823608 C-3.36793259 13.67498276 -3.36793259 13.67498276 -3.08154297 12.47802734 C-2.92040009 11.80395844 -2.7592572 11.12988953 -2.5932312 10.43539429 C-1.74495431 6.95295997 -0.86931083 3.47724332 0 0 Z " fill="#FDFDFD" transform="translate(74,136)"/>
<path d="M0 0 C19.47 0 38.94 0 59 0 C58.41524266 4.09330139 57.86614989 7.91418781 56.94921875 11.8984375 C56.74723877 12.78233154 56.54525879 13.66622559 56.3371582 14.5769043 C56.01557739 15.96196167 56.01557739 15.96196167 55.6875 17.375 C55.46602295 18.33510986 55.2445459 19.29521973 55.01635742 20.28442383 C54.56382841 22.24375917 54.11013919 24.20282692 53.65527344 26.16162109 C53.04386322 28.81000233 52.4453847 31.46091023 51.8515625 34.11328125 C51.50542259 35.63806949 51.15908093 37.16281194 50.8125 38.6875 C50.6580542 39.3872998 50.5036084 40.08709961 50.34448242 40.80810547 C49.59556444 44.059783 48.87785743 46.18321385 47 49 C44.09165115 49.26660183 41.39861732 49.34779124 38.4921875 49.29296875 C37.65156769 49.28872391 36.81094788 49.28447906 35.94485474 49.28010559 C33.25458007 49.26328532 30.56504901 49.22562781 27.875 49.1875 C26.05339622 49.17245745 24.23178072 49.1587683 22.41015625 49.14648438 C17.93981676 49.11337094 13.47003454 49.06156637 9 49 C9.29485316 47.10994961 9.59546957 45.22079786 9.8984375 43.33203125 C10.06520996 42.27991455 10.23198242 41.22779785 10.40380859 40.14379883 C10.95677995 37.22790524 11.70662162 34.50610839 12.625 31.6875 C14.75451749 24.17412548 15.95763792 14.80276792 12.30078125 7.69921875 C9.84467617 4.81777799 8.28918186 3.83577274 4.75 2.625 C3.41195312 2.14933594 3.41195312 2.14933594 2.046875 1.6640625 C1.37140625 1.44492187 0.6959375 1.22578125 0 1 C0 0.67 0 0.34 0 0 Z " fill="#FDFDFD" transform="translate(164,42)"/>
<path d="M0 0 C19.14 0 38.28 0 58 0 C53.13080169 23.12869198 53.13080169 23.12869198 51 32 C50.7520166 33.03278076 50.7520166 33.03278076 50.49902344 34.08642578 C49.96275175 36.30888747 49.42005747 38.5296779 48.875 40.75 C48.61879883 41.80707153 48.61879883 41.80707153 48.35742188 42.88549805 C47.11598419 47.88401581 47.11598419 47.88401581 46 49 C43.1883662 49.08861992 40.40141745 49.11522355 37.58984375 49.09765625 C36.74780899 49.0962413 35.90577423 49.09482635 35.03822327 49.09336853 C32.33794665 49.08775263 29.63775172 49.07519748 26.9375 49.0625 C25.11132932 49.05748705 23.28515734 49.05292379 21.45898438 49.04882812 C16.97262458 49.03777804 12.48632616 49.02050279 8 49 C6.45413152 45.90826304 7.89095446 43.22458228 8.8125 40.0625 C13.75236564 23.85110132 13.75236564 23.85110132 11.5625 7.625 C8.16468036 4.14430671 4.52275661 2.64288168 0 1 C0 0.67 0 0.34 0 0 Z " fill="#FDFDFD" transform="translate(75,42)"/>
<path d="M0 0 C12.87 0 25.74 0 39 0 C37.77394156 6.7433214 36.53016957 13.35416677 34.90625 19.9921875 C34.71405884 20.78601837 34.52186768 21.57984924 34.32385254 22.3977356 C33.92207061 24.0533015 33.51870152 25.708483 33.11376953 27.36328125 C32.49648007 29.88940456 31.88663893 32.41725053 31.27734375 34.9453125 C30.88325625 36.56521219 30.48874034 38.18500772 30.09375 39.8046875 C29.91348267 40.55370331 29.73321533 41.30271912 29.54748535 42.07443237 C28.61770745 45.85013118 27.55885979 49.43476506 26 53 C21.91661575 52.68816307 17.83330251 52.37540525 13.75 52.0625 C12.61046875 51.97548828 11.4709375 51.88847656 10.296875 51.79882812 C2.8619939 51.22853895 -4.56972884 50.627379 -12 50 C-10.45372241 43.36094659 -8.90524439 36.72240922 -7.35522461 30.08422852 C-6.82802275 27.8252327 -6.30132754 25.56611858 -5.77514648 23.30688477 C-5.01939455 20.06235123 -4.26183054 16.81824541 -3.50390625 13.57421875 C-3.26845596 12.56163498 -3.03300568 11.54905121 -2.79042053 10.50578308 C-2.46019142 9.09465996 -2.46019142 9.09465996 -2.12329102 7.6550293 C-1.93009781 6.82674118 -1.7369046 5.99845306 -1.53785706 5.14506531 C-1.10250807 3.40881959 -0.56604575 1.69813725 0 0 Z " fill="#FDFDFD" transform="translate(163,136)"/>
<path d="M0 0 C1.11725464 0.42792847 1.11725464 0.42792847 2.25708008 0.86450195 C5.63592767 2.22631734 8.46178632 3.39942797 10.75 6.3125 C10.0178125 6.15394531 9.285625 5.99539062 8.53125 5.83203125 C5.41139136 5.15977599 2.29007232 4.49460783 -0.83154297 3.83056641 C-2.53179654 3.46634895 -4.23127651 3.09851057 -5.93017578 2.72802734 C-19.97437897 -0.33445924 -33.96558743 -3.03618324 -48.25 -4.6875 C-49.12446777 -4.79191406 -49.99893555 -4.89632812 -50.89990234 -5.00390625 C-97.44017253 -10.31223521 -147.1286761 -7.62400726 -192.30224609 4.87646484 C-197.95027696 6.41240768 -197.95027696 6.41240768 -201.25 5.3125 C-140.69467079 -22.69629568 -62.20235392 -23.85365353 0 0 Z " fill="#FCFCFC" transform="translate(251.25,208.6875)"/>
<path d="M0 0 C2 3 2 3 1.609375 5.15625 C1.32578125 5.9296875 1.0421875 6.703125 0.75 7.5 C0.34007813 8.66015625 0.34007813 8.66015625 -0.078125 9.84375 C-1 12 -1 12 -3 15 C-2.5547115 9.72684667 -1.91626837 4.98229776 0 0 Z " fill="#F6F6F6" transform="translate(69,159)"/>
</svg>
